<?xml version="1.0" encoding="UTF-8" standalone="no"?>
<svg
   xmlns:dc="http://purl.org/dc/elements/1.1/"
   xmlns:cc="http://creativecommons.org/ns#"
   xmlns:rdf="http://www.w3.org/1999/02/22-rdf-syntax-ns#"
   xmlns:svg="http://www.w3.org/2000/svg"
   xmlns="http://www.w3.org/2000/svg"
   xmlns:sodipodi="http://sodipodi.sourceforge.net/DTD/sodipodi-0.dtd"
   xmlns:inkscape="http://www.inkscape.org/namespaces/inkscape"
   version="1.1"
   x="0px"
   y="0px"
   viewBox="0 0 91.567732 90.721582"
   enable-background="new 0 0 91.566 90.722"
   xml:space="preserve"
   id="svg22"
   inkscape:version="0.91 r13725"
   sodipodi:docname="jquery.svg"
   width="91.567734"
   height="90.721581"><metadata
     id="metadata44"><rdf:RDF><cc:Work
         rdf:about=""><dc:format>image/svg+xml</dc:format><dc:type
           rdf:resource="http://purl.org/dc/dcmitype/StillImage" /><dc:title></dc:title></cc:Work></rdf:RDF></metadata><defs
     id="defs42" /><sodipodi:namedview
     pagecolor="#ffffff"
     bordercolor="#666666"
     borderopacity="1"
     objecttolerance="10"
     gridtolerance="10"
     guidetolerance="10"
     inkscape:pageopacity="0"
     inkscape:pageshadow="2"
     inkscape:window-width="640"
     inkscape:window-height="480"
     id="namedview40"
     showgrid="false"
     inkscape:zoom="0.73577393"
     inkscape:cx="-32.12252"
     inkscape:cy="73.253085"
     inkscape:window-x="503"
     inkscape:window-y="208"
     inkscape:window-maximized="0"
     inkscape:current-layer="svg22"
     fit-margin-top="0"
     fit-margin-left="0"
     fit-margin-right="0"
     fit-margin-bottom="0" /><g
     id="g24"
     transform="translate(7.3633574e-4,0)"><g
       id="g26"><path
         d="m 89.442,67.336 -0.411,1.063 C 82.047,81.999 69.672,90.344 52.019,90.712 43.767,90.882 35.904,88.764 30.768,86.462 19.682,81.482 10.36,72.245 5.267,62.378 -2.036,48.232 -3.354,28.554 11.833,13.856 c 0.234,0 -1.842,3.188 -1.608,3.188 l -0.418,1.36 C -1.136,52.666 32.582,82.028 65.357,78.67 73.234,77.862 83.279,73.549 89.442,67.336 Z"
         id="path28"
         inkscape:connector-curvature="0"
         style="fill:#000000" /><path
         d="m 90.738,24.566 c -1.282,2.94 -8.663,8.493 -11.922,9.187 C 65.91,36.501 57.643,30.381 53.315,23.418 52.67,22.377 51.48,19.536 51.268,18.814 49.589,13.104 50.361,4.47 55.37,0 c -1.509,4.25 -1.728,9.187 -0.935,12.396 0.482,1.941 1.948,5.327 3.414,7.459 2.671,3.882 4.363,4.824 7.792,6.885 1.544,0.928 3.202,1.672 3.917,1.877 3.251,0.957 10.115,3.479 21.18,-4.051 z"
         id="path30"
         inkscape:connector-curvature="0"
         style="fill:#000000" /><path
         d="M 69.608,53.169 C 77.853,53.226 86.467,49.372 91.567,43.96 87.104,55.287 74.184,62.569 56.858,60.252 42.35,58.312 28.53,43.713 27.106,29.085 26.065,18.438 29.777,12.084 35.89,4.378 33.765,8.409 32.972,11.518 32.773,13.502 30.45,36.53 51.169,53.049 69.608,53.169 Z"
         id="path32"
         inkscape:connector-curvature="0"
         style="fill:#000000" /></g></g><path
     d="M 221.55074,152.399"
     id="path34"
     inkscape:connector-curvature="0" /></svg>
