<?xml version="1.0" encoding="UTF-8" standalone="no"?>
<svg
   xmlns:dc="http://purl.org/dc/elements/1.1/"
   xmlns:cc="http://creativecommons.org/ns#"
   xmlns:rdf="http://www.w3.org/1999/02/22-rdf-syntax-ns#"
   xmlns:svg="http://www.w3.org/2000/svg"
   xmlns="http://www.w3.org/2000/svg"
   xmlns:sodipodi="http://sodipodi.sourceforge.net/DTD/sodipodi-0.dtd"
   xmlns:inkscape="http://www.inkscape.org/namespaces/inkscape"
   version="1.1"
   x="0px"
   y="0px"
   viewBox="0 0 36 45"
   id="svg2"
   inkscape:version="0.91 r13725"
   sodipodi:docname="workflow.svg">
  <metadata
     id="metadata18">
    <rdf:RDF>
      <cc:Work
         rdf:about="">
        <dc:format>image/svg+xml</dc:format>
        <dc:type
           rdf:resource="http://purl.org/dc/dcmitype/StillImage" />
      </cc:Work>
    </rdf:RDF>
  </metadata>
  <defs
     id="defs16" />
  <sodipodi:namedview
     pagecolor="#ffffff"
     bordercolor="#666666"
     borderopacity="1"
     objecttolerance="10"
     gridtolerance="10"
     guidetolerance="10"
     inkscape:pageopacity="0"
     inkscape:pageshadow="2"
     inkscape:window-width="1615"
     inkscape:window-height="1026"
     id="namedview14"
     showgrid="false"
     inkscape:zoom="5.2444444"
     inkscape:cx="17.234365"
     inkscape:cy="22.5"
     inkscape:window-x="65"
     inkscape:window-y="24"
     inkscape:window-maximized="1"
     inkscape:current-layer="svg2" />
  <g
     transform="matrix(1.5275424,0,0,1.5275424,-9.0927569,1.476695)"
     id="g4">
    <g
       transform="translate(263.34687,-2093.5564)"
       id="g6">
      <path
         style="color:#000000;display:inline;overflow:visible;visibility:visible;fill:#000000;fill-opacity:1;stroke:none;marker:none;enable-background:accumulate"
         d="m 15.53125,3 0,5 2,0 0,3 L 8,11 l 0,1 0,3 -1.96875,0 0,5 L 8,20 l 0,4 1,0 3.71875,0 0,4 -1.9375,0 0,5 5,0 0,-5 -2.0625,0 0,-4 4.34375,0 0.40625,0 0,-4 2.0625,0 0,-5 -2,0 0,-3 8.46875,0 0,3 -2.03125,0 0,5 2,0 0,4 -2,0 0,5 5,0 0,-5 -2,0 0,-4 2,0 0,-5 L 28,15 l 0,-3.5 0,-0.5 -9.46875,0 0,-3 2,0 0,-5 -5,0 z M 9,12 l 8.53125,0 0,3 -2,0 0,5 1.9375,0 0,3 L 9,23 l 0,-3 2.03125,0 0,-5 L 9,15 9,12 Z"
         transform="translate(-263.34687,2089.5564)"
         visibility="visible"
         display="inline"
         overflow="visible"
         id="path8"
         inkscape:connector-curvature="0" />
    </g>
  </g>
</svg>
