<svg xmlns:dc="http://purl.org/dc/elements/1.1/" xmlns:cc="http://creativecommons.org/ns#" xmlns:rdf="http://www.w3.org/1999/02/22-rdf-syntax-ns#" xmlns:svg="http://www.w3.org/2000/svg" xmlns="http://www.w3.org/2000/svg" xmlns:sodipodi="http://sodipodi.sourceforge.net/DTD/sodipodi-0.dtd" xmlns:inkscape="http://www.inkscape.org/namespaces/inkscape" version="1.1" x="0px" y="0px" viewBox="0 0 36 45"><g transform="translate(0,4)"><g transform="translate(263.34687,-2093.5564)"><path style="color:#000000;enable-background:accumulate;" d="M 15.53125 3 L 15.53125 8 L 17.53125 8 L 17.53125 11 L 8 11 L 8 12 L 8 15 L 6.03125 15 L 6.03125 20 L 8 20 L 8 24 L 9 24 L 12.71875 24 L 12.71875 28 L 10.78125 28 L 10.78125 33 L 15.78125 33 L 15.78125 28 L 13.71875 28 L 13.71875 24 L 18.0625 24 L 18.46875 24 L 18.46875 20 L 20.53125 20 L 20.53125 15 L 18.53125 15 L 18.53125 12 L 27 12 L 27 15 L 24.96875 15 L 24.96875 20 L 26.96875 20 L 26.96875 24 L 24.96875 24 L 24.96875 29 L 29.96875 29 L 29.96875 24 L 27.96875 24 L 27.96875 20 L 29.96875 20 L 29.96875 15 L 28 15 L 28 11.5 L 28 11 L 18.53125 11 L 18.53125 8 L 20.53125 8 L 20.53125 3 L 15.53125 3 z M 9 12 L 17.53125 12 L 17.53125 15 L 15.53125 15 L 15.53125 20 L 17.46875 20 L 17.46875 23 L 9 23 L 9 20 L 11.03125 20 L 11.03125 15 L 9 15 L 9 12 z " transform="translate(-263.34687,2089.5564)" fill="#000000" fill-opacity="1" stroke="none" marker="none" visibility="visible" display="inline" overflow="visible"/></g></g><text x="0" y="51" fill="#000000" font-size="5px" font-weight="bold" font-family="'Helvetica Neue', Helvetica, Arial-Unicode, Arial, Sans-serif">Created by mantisshrimpdesign</text><text x="0" y="56" fill="#000000" font-size="5px" font-weight="bold" font-family="'Helvetica Neue', Helvetica, Arial-Unicode, Arial, Sans-serif">from the Noun Project</text></svg>
