<?xml version="1.0" encoding="UTF-8" standalone="no"?>
<svg
   xmlns:dc="http://purl.org/dc/elements/1.1/"
   xmlns:cc="http://creativecommons.org/ns#"
   xmlns:rdf="http://www.w3.org/1999/02/22-rdf-syntax-ns#"
   xmlns:svg="http://www.w3.org/2000/svg"
   xmlns="http://www.w3.org/2000/svg"
   xmlns:sodipodi="http://sodipodi.sourceforge.net/DTD/sodipodi-0.dtd"
   xmlns:inkscape="http://www.inkscape.org/namespaces/inkscape"
   version="1.1"
   id="Layer_1"
   x="0px"
   y="0px"
   width="24px"
   height="24px"
   viewBox="1.2 -2.4 24.0 32.4"
   enable-background="new 0 0 24 24"
   xml:space="preserve"
   inkscape:version="0.48.4 r9939"
   sodipodi:docname="about.svg"><metadata
     id="metadata21"><rdf:RDF><cc:Work
         rdf:about=""><dc:format>image/svg+xml</dc:format><dc:type
           rdf:resource="http://purl.org/dc/dcmitype/StillImage" /></cc:Work></rdf:RDF></metadata><defs
     id="defs19" /><sodipodi:namedview
     pagecolor="#ffffff"
     bordercolor="#666666"
     borderopacity="1"
     objecttolerance="10"
     gridtolerance="10"
     guidetolerance="10"
     inkscape:pageopacity="0"
     inkscape:pageshadow="2"
     inkscape:window-width="640"
     inkscape:window-height="480"
     id="namedview17"
     showgrid="false"
     inkscape:zoom="9.8333333"
     inkscape:cx="3.7734047"
     inkscape:cy="20.745763"
     inkscape:window-x="7"
     inkscape:window-y="7"
     inkscape:window-maximized="0"
     inkscape:current-layer="Layer_1" /><circle
     cx="7"
     cy="11"
     r="1"
     id="circle3"
     sodipodi:cx="7"
     sodipodi:cy="11"
     sodipodi:rx="1"
     sodipodi:ry="1"
     transform="matrix(-1.2554658,0.4122499,0.4122499,1.2554658,20.686083,-11.406186)" /><circle
     cx="11"
     cy="11"
     r="1"
     id="circle5"
     sodipodi:cx="11"
     sodipodi:cy="11"
     sodipodi:rx="1"
     sodipodi:ry="1"
     transform="matrix(-1.2554658,0.4122499,0.4122499,1.2554658,20.686083,-11.406186)" /><circle
     cx="15"
     cy="11"
     r="1"
     id="circle7"
     sodipodi:cx="15"
     sodipodi:cy="11"
     sodipodi:rx="1"
     sodipodi:ry="1"
     transform="matrix(-1.2554658,0.4122499,0.4122499,1.2554658,20.686083,-11.406186)" /><g
     id="g9"
     transform="matrix(-1.2554658,0.4122499,0.4122499,1.2554658,20.686083,-11.406186)"><path
       d="m 17,8 c 1.654,0 3,1.346 3,3 0,1.654 -1.346,3 -3,3 H 10 9.171 L 8.586,14.586 6,17.172 V 15.9 14.265 L 4.398,13.94 C 3.009,13.657 2,12.421 2,11 2,9.346 3.346,8 5,8 H 17 M 17,6 H 5 c -2.761,0 -5,2.239 -5,5 0,2.419 1.718,4.436 4,4.899 V 22 l 6,-6 h 7 c 2.762,0 5,-2.238 5,-5 0,-2.762 -2.238,-5 -5,-5 l 0,0 z"
       id="path11"
       inkscape:connector-curvature="0" /></g></svg>