<?xml version="1.0" encoding="UTF-8" standalone="no"?>
<svg
   xmlns:dc="http://purl.org/dc/elements/1.1/"
   xmlns:cc="http://creativecommons.org/ns#"
   xmlns:rdf="http://www.w3.org/1999/02/22-rdf-syntax-ns#"
   xmlns:svg="http://www.w3.org/2000/svg"
   xmlns="http://www.w3.org/2000/svg"
   xmlns:sodipodi="http://sodipodi.sourceforge.net/DTD/sodipodi-0.dtd"
   xmlns:inkscape="http://www.inkscape.org/namespaces/inkscape"
   version="1.1"
   id="Layer_1"
   x="0px"
   y="0px"
   width="100px"
   height="100px"
   viewBox="5.0 -10.0 100.0 135.0"
   enable-background="new 0 0 100 100"
   xml:space="preserve"
   inkscape:version="0.48.4 r9939"
   sodipodi:docname="noun_74409_cc.svg"><metadata
     id="metadata17"><rdf:RDF><cc:Work
         rdf:about=""><dc:format>image/svg+xml</dc:format><dc:type
           rdf:resource="http://purl.org/dc/dcmitype/StillImage" /></cc:Work></rdf:RDF></metadata><defs
     id="defs15" /><sodipodi:namedview
     pagecolor="#ffffff"
     bordercolor="#666666"
     borderopacity="1"
     objecttolerance="10"
     gridtolerance="10"
     guidetolerance="10"
     inkscape:pageopacity="0"
     inkscape:pageshadow="2"
     inkscape:window-width="640"
     inkscape:window-height="480"
     id="namedview13"
     showgrid="false"
     inkscape:zoom="2.36"
     inkscape:cx="50"
     inkscape:cy="50"
     inkscape:window-x="0"
     inkscape:window-y="0"
     inkscape:window-maximized="0"
     inkscape:current-layer="Layer_1" /><g
     id="g3"
     transform="matrix(1.8480588,0,0,1.8480588,-38.488353,-33.536164)"><g
       id="g5"><path
         d="M 70.76,72.55 C 69.566,70.278 57.939,53.377 56.622,51.496 c -0.01,-0.01 -0.017,-0.021 -0.024,-0.033 l -1.449,-1.872 13.738,-19.622 1.124,0.787 -11.954,17.071 c -0.171,0.244 -0.111,0.582 0.133,0.753 0.094,0.066 0.203,0.098 0.311,0.098 0.17,0 0.338,-0.082 0.443,-0.231 L 71.517,30.49 69.507,29.083 71.59,26.107 c 0.271,-0.384 0.177,-0.915 -0.208,-1.184 l -0.387,-0.272 1.769,-2.526 C 73.587,20.95 73.299,19.323 72.123,18.5 l -1.064,-0.745 c -1.175,-0.823 -2.8,-0.536 -3.623,0.64 l -1.77,2.525 -0.388,-0.271 c -0.185,-0.13 -0.414,-0.18 -0.635,-0.141 -0.224,0.039 -0.421,0.166 -0.55,0.35 L 49.282,42.01 39.115,28.867 C 39.322,27.715 39.086,26.483 38.364,25.45 37.108,23.657 29.232,20.414 27.667,19.783 27.31,19.639 26.9,19.752 26.668,20.06 c -0.231,0.307 -0.227,0.731 0.01,1.034 2.657,3.397 3.012,5.366 3.298,6.948 0.166,0.921 0.323,1.79 0.917,2.639 0.701,1.001 1.77,1.67 2.955,1.876 l 10.458,16.56 -15.593,22.269 c -0.113,0.163 -0.159,0.352 -0.148,0.536 l -1.769,8.823 c -0.067,0.331 0.07,0.67 0.346,0.863 0.146,0.103 0.316,0.153 0.487,0.153 0.153,0 0.307,-0.04 0.442,-0.123 l 7.687,-4.681 C 35.94,76.902 36.1,76.791 36.21,76.635 l 13.422,-19.17 c 2.665,3.764 12.838,18.005 14.44,19.769 2.39,2.63 5.464,5.48 7.553,5.48 0.387,0 0.74,-0.1 1.05,-0.313 1.972,-1.382 0.047,-6.12 -1.915,-9.851 z M 68.826,19.369 c 0.287,-0.407 0.851,-0.507 1.259,-0.221 l 1.063,0.745 c 0.407,0.285 0.507,0.849 0.222,1.257 l -1.769,2.525 -2.543,-1.781 1.768,-2.525 z m -37.352,7.467 c -0.241,-1.127 -0.661,-2.517 -1.757,-4.343 3.25,1.428 6.703,3.145 7.254,3.932 0.591,0.845 0.659,1.9 0.275,2.783 -0.677,-0.743 -1.984,-1.12 -3.364,-1.515 -0.893,-0.255 -1.809,-0.518 -2.408,-0.857 z m 0.812,2.86 c -0.315,-0.451 -0.443,-0.936 -0.563,-1.56 0.564,0.22 1.204,0.407 1.862,0.595 1.205,0.345 2.57,0.737 2.947,1.31 0.021,0.032 0.046,0.06 0.073,0.085 -0.105,0.1 -0.215,0.185 -0.336,0.271 -0.484,0.339 -1.05,0.508 -1.636,0.508 -0.935,10e-4 -1.812,-0.445 -2.347,-1.209 z m 3.518,2.774 c 0.511,-0.137 0.998,-0.359 1.439,-0.668 0.45,-0.315 0.826,-0.697 1.124,-1.123 l 4.749,6.139 -3.166,2.217 -4.146,-6.565 z m 4.724,7.481 3.25,-2.276 4.482,5.794 -2.897,4.138 -4.835,-7.656 z m -11.684,39.227 1.171,-5.843 3.917,2.743 -5.088,3.1 z m 6.461,-4.215 -4.712,-3.299 2.504,-3.575 4.711,3.299 -2.503,3.575 z m 3.124,-4.461 -4.711,-3.298 0.974,-1.394 4.711,3.299 -0.974,1.393 z m 1.595,-2.278 -4.711,-3.298 0.976,-1.394 4.711,3.299 -0.976,1.393 z m 1.597,-2.28 -4.711,-3.299 0.976,-1.394 4.711,3.299 -0.976,1.394 z M 43.217,63.665 38.506,60.366 65,22.529 69.711,25.827 43.217,63.665 z M 71.7,81.007 c -0.074,0.05 -0.653,0.052 -1.947,-0.836 -1.244,-0.855 -2.774,-2.268 -4.423,-4.08 -1.552,-1.71 -12.414,-16.91 -14.661,-20.104 l 3.458,-4.938 1.112,1.439 c 2.136,3.05 12.951,18.831 14.016,20.853 2.977,5.662 2.635,7.534 2.445,7.666 z"
         id="path7"
         inkscape:connector-curvature="0" /></g></g></svg>