<?xml version="1.0" encoding="UTF-8" standalone="no"?>
<svg
   xmlns:dc="http://purl.org/dc/elements/1.1/"
   xmlns:cc="http://creativecommons.org/ns#"
   xmlns:rdf="http://www.w3.org/1999/02/22-rdf-syntax-ns#"
   xmlns:svg="http://www.w3.org/2000/svg"
   xmlns="http://www.w3.org/2000/svg"
   xmlns:sodipodi="http://sodipodi.sourceforge.net/DTD/sodipodi-0.dtd"
   xmlns:inkscape="http://www.inkscape.org/namespaces/inkscape"
   version="1.1"
   id="Layer_1"
   x="0px"
   y="0px"
   width="100px"
   height="100px"
   viewBox="5.0 -10.0 100.0 135.0"
   enable-background="new 0 0 100 100"
   xml:space="preserve"
   inkscape:version="0.48.4 r9939"
   sodipodi:docname="exp.svg"><metadata
     id="metadata13"><rdf:RDF><cc:Work
         rdf:about=""><dc:format>image/svg+xml</dc:format><dc:type
           rdf:resource="http://purl.org/dc/dcmitype/StillImage" /></cc:Work></rdf:RDF></metadata><defs
     id="defs11" /><sodipodi:namedview
     pagecolor="#ffffff"
     bordercolor="#666666"
     borderopacity="1"
     objecttolerance="10"
     gridtolerance="10"
     guidetolerance="10"
     inkscape:pageopacity="0"
     inkscape:pageshadow="2"
     inkscape:window-width="640"
     inkscape:window-height="480"
     id="namedview9"
     showgrid="false"
     inkscape:zoom="2.36"
     inkscape:cx="50"
     inkscape:cy="50"
     inkscape:window-x="0"
     inkscape:window-y="0"
     inkscape:window-maximized="0"
     inkscape:current-layer="Layer_1" /><path
     d="M 111.66109,10.15021 32.030775,-9.9893971 c -2.330788,-0.5894879 -4.697614,0.8218004 -5.286814,3.1514472 L 0.01547736,98.844234 c -0.58919996,2.329636 0.82180129,4.697606 3.15258894,5.287086 l 79.6303197,20.13961 c 2.331932,0.58978 4.699038,-0.82265 5.288237,-3.1523 L 114.8151,15.436459 c 0.5892,-2.329647 -0.82208,-4.696471 -3.15401,-5.286249 z m -79.676278,4.550394 c 1.718236,-6.7937571 8.619639,-10.9079492 15.413397,-9.1897143 6.794898,1.7185235 10.908238,8.6184963 9.190003,15.4122533 -1.264427,4.999438 -5.336414,8.538284 -10.104613,9.379879 l -2.836012,11.213351 -4.359609,-3.938312 -5.707752,1.392137 2.8363,-11.214491 C 32.62205,24.747279 30.720386,19.700042 31.984812,14.700604 z m 46.664777,84.76547 -60.037772,-15.184379 1.004036,-3.969874 60.037771,15.184381 -1.004035,3.969872 z m 4.141142,-16.373729 -60.037772,-15.18438 1.004036,-3.969874 60.037772,15.184381 -1.004036,3.969873 z M 86.932163,66.717474 26.89439,51.533093 l 1.003747,-3.968732 60.037772,15.184381 -1.003746,3.968732 z m 4.141141,-16.37373 -32.499771,-8.219641 1.004036,-3.969873 32.499771,8.219641 -1.004036,3.969873 z m 4.140854,-16.37259 -32.499771,-8.21964 1.004325,-3.971015 32.499771,8.219641 -1.004325,3.971014 z"
     id="path3"
     inkscape:connector-curvature="0" /></svg>