<?xml version="1.0" encoding="UTF-8" standalone="no"?>
<svg
   xmlns:dc="http://purl.org/dc/elements/1.1/"
   xmlns:cc="http://creativecommons.org/ns#"
   xmlns:rdf="http://www.w3.org/1999/02/22-rdf-syntax-ns#"
   xmlns:svg="http://www.w3.org/2000/svg"
   xmlns="http://www.w3.org/2000/svg"
   xmlns:sodipodi="http://sodipodi.sourceforge.net/DTD/sodipodi-0.dtd"
   xmlns:inkscape="http://www.inkscape.org/namespaces/inkscape"
   version="1.1"
   id="Layer_1"
   x="0px"
   y="0px"
   width="100px"
   height="100px"
   viewBox="5.0 -10.0 100.0 135.0"
   enable-background="new 0 0 100 100"
   xml:space="preserve"
   inkscape:version="0.48.4 r9939"
   sodipodi:docname="graph.svg"><metadata
     id="metadata13"><rdf:RDF><cc:Work
         rdf:about=""><dc:format>image/svg+xml</dc:format><dc:type
           rdf:resource="http://purl.org/dc/dcmitype/StillImage" /></cc:Work></rdf:RDF></metadata><defs
     id="defs11" /><sodipodi:namedview
     pagecolor="#ffffff"
     bordercolor="#666666"
     borderopacity="1"
     objecttolerance="10"
     gridtolerance="10"
     guidetolerance="10"
     inkscape:pageopacity="0"
     inkscape:pageshadow="2"
     inkscape:window-width="640"
     inkscape:window-height="480"
     id="namedview9"
     showgrid="false"
     inkscape:zoom="1.668772"
     inkscape:cx="74.862711"
     inkscape:cy="61.470365"
     inkscape:window-x="7"
     inkscape:window-y="7"
     inkscape:window-maximized="0"
     inkscape:current-layer="Layer_1" /><path
     d="M 12.753942,40.74355 36.023374,16.249535 c 0.982619,-1.03433 2.603113,-1.115628 3.685276,-0.187252 l 0.855796,0.739162 c 0.0871,0.07543 0.985037,0.832423 2.361401,1.863069 3.850985,2.879448 7.443198,4.896502 10.113927,5.68002 3.887766,1.138551 8.578448,2.873738 11.833098,4.130761 1.134078,0.36852 2.390799,0.868321 3.599977,1.433714 0.06326,0.03055 0.130402,0.06482 0.197652,0.102846 l 0.0017,-0.0057 2.71051,1.448945 c 2.278442,1.359675 4.294318,2.890802 6.106821,4.612688 13.050406,12.397949 14.06431,32.596344 2.258144,45.023824 -11.808012,12.429423 -32.031825,12.451881 -45.082231,0.05393 -1.806681,-1.716356 -3.437158,-3.649279 -4.846697,-5.752586 l -1.658805,-2.742537 0.002,0.0019 C 28.098564,72.544059 28.038973,72.435792 27.990637,72.323446 27.430007,71.28135 26.866467,70.051888 26.387626,68.80322 25.020009,65.750286 23.041011,61.152935 21.702793,57.326777 19.904367,52.166271 14.182374,45.947649 13.536065,45.256122 l -0.780239,-0.818707 c -0.98074,-1.035143 -0.984553,-2.659482 -0.0019,-3.69381 z M 38.173437,21.758867 18.366215,42.608468 c 2.14473,2.421466 6.628043,7.884229 8.393772,12.950906 1.274958,3.647915 3.189528,8.095452 4.56947,11.185935 0.458072,1.177258 0.925559,2.2047 1.452518,3.18897 0.0082,0.01856 0.01987,0.03738 0.02803,0.05989 l 1.520634,2.522669 c 1.121853,1.663857 2.50044,3.298417 4.021855,4.743768 10.911887,10.366346 27.739385,10.429067 37.513945,0.14011 9.774562,-10.288961 8.847781,-27.089194 -2.064106,-37.45554 -1.527236,-1.450882 -3.22835,-2.742055 -5.056962,-3.836841 L 66.1674,34.733621 C 65.052534,34.22829 64.06565,33.84085 63.070908,33.51609 59.783753,32.246648 55.244048,30.566283 51.537533,29.481777 47.344609,28.256383 42.795593,25.25283 39.716662,22.948083 39.112467,22.495929 38.590934,22.092771 38.17342,21.758894 z M 9.618462,34.682023 29.805456,13.432664 c 1.017646,-1.071201 2.711007,-1.116504 3.784148,-0.09701 1.073135,1.019482 1.114657,2.712933 0.09701,3.784134 L 13.499621,38.369143 c -1.01949,1.073142 -2.710998,1.116509 -3.7841322,0.09703 C 8.6423473,37.44668 8.6008141,35.753226 9.618462,34.682023 z M 5.0037648,30.298038 25.190759,9.0486789 c 1.017646,-1.0712007 2.710999,-1.1165107 3.784141,-0.097021 1.073142,1.0194897 1.114671,2.7129471 0.09702,3.7841481 L 8.8849311,33.985165 c -1.0194897,1.073142 -2.7110052,1.116503 -3.7841467,0.09701 -1.0731416,-1.01949 -1.1146676,-2.712937 -0.09702,-3.78414 z M 1.8437265,24.386718 19.125271,6.1957113 c 1.017646,-1.0712007 2.711007,-1.1165038 3.784148,-0.097014 1.073134,1.0194828 1.114664,2.7129402 0.09702,3.784141 L 5.7248928,28.073845 C 4.7054032,29.146986 3.0138877,29.190347 1.9407533,28.170864 0.86761177,27.151375 0.82608475,25.457914 1.8437265,24.386718 z M 50.287696,36.929909 c 0.608375,-0.640392 1.52016,-0.966699 2.452514,-0.786125 24.936027,4.841825 24.890086,23.283888 24.625769,26.931509 -0.104213,1.473779 -1.387817,2.583984 -2.861691,2.475987 -1.473875,-0.107998 -2.583983,-1.387817 -2.475986,-2.861691 0.20503,-2.858482 0.1942,-17.311769 -20.306428,-21.292254 -1.451848,-0.282748 -2.400403,-1.685988 -2.117656,-3.137836 0.09839,-0.519398 0.344262,-0.972523 0.683478,-1.32959 z M 13.831691,99.690785 24.378704,88.588722 c 1.01949,-1.073141 2.71294,-1.114664 3.784141,-0.09702 1.071201,1.017646 1.116511,2.711 0.09702,3.784141 L 17.712853,103.37791 c -1.01949,1.07314 -2.712941,1.11466 -3.784141,0.097 -1.071201,-1.01765 -1.116511,-2.711 -0.09702,-3.784145 z M 84.399534,25.409224 94.946548,14.30716 c 1.017646,-1.0712 2.712941,-1.114665 3.784142,-0.09702 1.071201,1.017646 1.114666,2.712941 0.09702,3.784142 L 88.280696,29.096346 c -1.017646,1.071201 -2.712942,1.114666 -3.784142,0.09702 -1.071201,-1.017646 -1.114666,-2.712941 -0.09702,-3.784142 z m 2.120707,62.112621 c 1.017646,-1.071201 2.712941,-1.114666 3.784142,-0.09702 l 11.102067,10.547015 c 1.0712,1.017646 1.11466,2.712941 0.097,3.784141 -1.01949,1.07314 -2.712942,1.11466 -3.784143,0.097 L 86.617263,91.305984 c -1.071201,-1.017646 -1.116511,-2.710998 -0.09702,-3.784139 z M 54.464644,99.932682 c 0.471955,-0.496791 1.134081,-0.812907 1.871988,-0.831826 1.479604,-0.03794 2.706051,1.127194 2.743982,2.606794 l 0.392441,15.30686 c 0.03793,1.4796 -1.127192,2.70604 -2.606792,2.74398 -1.479601,0.0379 -2.706048,-1.1272 -2.743982,-2.6068 l -0.392444,-15.30685 c -0.02086,-0.73975 0.262859,-1.41537 0.734807,-1.912158 z M 97.648806,55.237611 c 0.471951,-0.496788 1.13408,-0.812908 1.871988,-0.831827 l 15.306856,-0.392445 c 1.4796,-0.03793 2.70605,1.127197 2.74398,2.606797 0.0379,1.479598 -1.1272,2.706046 -2.60679,2.743981 l -15.30686,0.392444 c -1.4796,0.03794 -2.706047,-1.127196 -2.743982,-2.606796 -0.01708,-0.739848 0.264699,-1.417306 0.734808,-1.912154 z M 51.452731,-3.5866059 c 0.471953,-0.4967895 1.134086,-0.8129049 1.871985,-0.8318306 1.479609,-0.037928 2.706051,1.1271983 2.743986,2.6067997 l 0.392444,15.3068558 c 0.03793,1.479599 -1.127195,2.706046 -2.606795,2.743981 -1.4796,0.03793 -2.706045,-1.127195 -2.743985,-2.606798 L 50.71792,-1.6744552 c -0.01891,-0.7379008 0.26286,-1.415362 0.734811,-1.9121507 z M -6.6476912,56.80971 c 0.47196,-0.496797 1.1340875,-0.812907 1.8719938,-0.831826 L 10.53495,55.585337 c 1.479597,-0.03793 2.706043,1.127195 2.743979,2.606793 0.03793,1.479604 -1.127197,2.706046 -2.6068,2.743986 l -15.3106408,0.392539 c -1.4796007,0.03793 -2.7060503,-1.127199 -2.7439784,-2.606792 -0.018919,-0.737907 0.2628528,-1.41537 0.734799,-1.912153 z"
     id="path3"
     inkscape:connector-curvature="0"
     sodipodi:nodetypes="sscccccccccsssccccccccscccccccsssccccccssssssssssssssssssssssccscccsssssssssssssssssssssssssssscssssssscsssssssssssssssss" /></svg>