<svg xmlns="http://www.w3.org/2000/svg" xmlns:xlink="http://www.w3.org/1999/xlink" version="1.1" id="Ebene_1" x="0px" y="0px" width="90px" height="90px" viewBox="4.5 -9.0 90.0 121.5" enable-background="new 0 0 90 90" xml:space="preserve">
<g>
	<path fill="#000000" d="M54.844,0v23.554c0,5.428-4.417,9.844-9.844,9.844c-5.429,0-9.844-4.416-9.844-9.844V0   C23.829,3.237,15.468,13.687,15.468,26.015v36.914C15.468,77.817,27.65,90,42.539,90h4.922c14.889,0,27.071-12.183,27.071-27.071   V26.015C74.532,13.687,66.169,3.237,54.844,0z"/>
	<path fill="#000000" d="M45,28.476c2.706,0,4.922-2.215,4.922-4.922V8.788c0-2.707-2.216-4.922-4.922-4.922   c-2.708,0-4.922,2.215-4.922,4.922v14.766C40.078,26.261,42.292,28.476,45,28.476z"/>
</g>
<text x="0.0" y="105.75" font-size="4.5" font-weight="bold" font-family="Helvetica Neue, Helvetica, Arial-Unicode, Arial, Sans-serif" fill="#000000">Created by Timo W</text><text x="0.0" y="110.25" font-size="4.5" font-weight="bold" font-family="Helvetica Neue, Helvetica, Arial-Unicode, Arial, Sans-serif" fill="#000000">from the Noun Project</text></svg>