<?xml version="1.0" encoding="UTF-8" standalone="no"?>
<svg
   xmlns:dc="http://purl.org/dc/elements/1.1/"
   xmlns:cc="http://creativecommons.org/ns#"
   xmlns:rdf="http://www.w3.org/1999/02/22-rdf-syntax-ns#"
   xmlns:svg="http://www.w3.org/2000/svg"
   xmlns="http://www.w3.org/2000/svg"
   xmlns:sodipodi="http://sodipodi.sourceforge.net/DTD/sodipodi-0.dtd"
   xmlns:inkscape="http://www.inkscape.org/namespaces/inkscape"
   version="1.0"
   id="Layer_1"
   x="0px"
   y="0px"
   width="100px"
   height="100px"
   viewBox="5.0 -10.0 100.0 135.0"
   enable-background="new 0 0 100 100"
   xml:space="preserve"
   inkscape:version="0.48.4 r9939"
   sodipodi:docname="noun_3060_cc.svg"><metadata
     id="metadata17"><rdf:RDF><cc:Work
         rdf:about=""><dc:format>image/svg+xml</dc:format><dc:type
           rdf:resource="http://purl.org/dc/dcmitype/StillImage" /></cc:Work></rdf:RDF></metadata><defs
     id="defs15" /><sodipodi:namedview
     pagecolor="#ffffff"
     bordercolor="#666666"
     borderopacity="1"
     objecttolerance="10"
     gridtolerance="10"
     guidetolerance="10"
     inkscape:pageopacity="0"
     inkscape:pageshadow="2"
     inkscape:window-width="640"
     inkscape:window-height="480"
     id="namedview13"
     showgrid="false"
     inkscape:zoom="2.36"
     inkscape:cx="50"
     inkscape:cy="51.927966"
     inkscape:window-x="0"
     inkscape:window-y="0"
     inkscape:window-maximized="0"
     inkscape:current-layer="Layer_1" /><g
     id="g3"
     transform="matrix(1.2745763,0,0,1.2745763,-8.5805085,-6.8644068)"><g
       id="g5"><path
         clip-rule="evenodd"
         d="m 34.896,42.709 c 3.74,0 6.771,-3.031 6.771,-6.771 0,-3.74 -3.031,-6.771 -6.771,-6.771 -3.739,0 -6.771,3.031 -6.771,6.771 0,3.74 3.033,6.771 6.771,6.771 z m 30.209,0 c 3.74,0 6.771,-3.031 6.771,-6.771 0,-3.74 -3.031,-6.771 -6.771,-6.771 -3.739,0 -6.771,3.031 -6.771,6.771 0,3.74 3.032,6.771 6.771,6.771 z M 50,0 C 22.386,0 0,22.386 0,50 0,77.613 22.386,100 50,100 77.613,100 100,77.613 100,50 100,22.386 77.613,0 50,0 z m 0,91.67 C 26.989,91.67 8.333,73.014 8.333,50.002 8.333,26.99 26.989,8.333 50,8.333 73.013,8.333 91.669,26.989 91.669,50.001 91.669,73.013 73.014,91.67 50,91.67 z M 71.355,57.294 c 0,0 -3.645,15.624 -21.355,15.624 -17.708,0 -21.354,-15.624 -21.354,-15.624 h -8.854 c 0,0 5.468,23.959 30.208,23.959 24.48,0 30.209,-23.959 30.209,-23.959 h -8.854 z"
         id="path7"
         inkscape:connector-curvature="0"
         style="fill-rule:evenodd" /></g></g></svg>