<?xml version="1.0" encoding="UTF-8" standalone="no"?>
<svg
   xmlns:dc="http://purl.org/dc/elements/1.1/"
   xmlns:cc="http://creativecommons.org/ns#"
   xmlns:rdf="http://www.w3.org/1999/02/22-rdf-syntax-ns#"
   xmlns:svg="http://www.w3.org/2000/svg"
   xmlns="http://www.w3.org/2000/svg"
   xmlns:sodipodi="http://sodipodi.sourceforge.net/DTD/sodipodi-0.dtd"
   xmlns:inkscape="http://www.inkscape.org/namespaces/inkscape"
   version="1.1"
   id="Your_Icon"
   x="0px"
   y="0px"
   width="100px"
   height="100px"
   viewBox="5.0 -10.0 100.0 135.0"
   enable-background="new 0 0 100 100"
   xml:space="preserve"
   inkscape:version="0.48.4 r9939"
   sodipodi:docname="soft.svg"><metadata
     id="metadata23"><rdf:RDF><cc:Work
         rdf:about=""><dc:format>image/svg+xml</dc:format><dc:type
           rdf:resource="http://purl.org/dc/dcmitype/StillImage" /></cc:Work></rdf:RDF></metadata><defs
     id="defs21" /><sodipodi:namedview
     pagecolor="#ffffff"
     bordercolor="#666666"
     borderopacity="1"
     objecttolerance="10"
     gridtolerance="10"
     guidetolerance="10"
     inkscape:pageopacity="0"
     inkscape:pageshadow="2"
     inkscape:window-width="640"
     inkscape:window-height="480"
     id="namedview19"
     showgrid="false"
     inkscape:zoom="2.36"
     inkscape:cx="50"
     inkscape:cy="50"
     inkscape:window-x="0"
     inkscape:window-y="0"
     inkscape:window-maximized="0"
     inkscape:current-layer="Your_Icon" /><path
     d="m 113.73692,47.734642 c -0.38295,-0.06864 -0.63676,-0.414349 -0.59657,-0.810553 0.0393,-0.387228 0.36761,-0.673889 0.76807,-0.663062 1.10784,0.02299 2.17374,-0.409074 2.94573,-1.212939 0.78107,-0.791284 1.18093,-1.872547 1.12351,-2.979466 -0.11405,-2.234484 -0.4562,-4.480447 -1.01644,-6.670808 -0.27839,-1.099539 -1.01484,-2.025322 -2.01385,-2.546369 -0.45568,-0.245714 -0.95177,-0.386712 -1.4467,-0.436915 -0.60392,-0.06126 -1.21419,0.01674 -1.79529,0.228538 -0.10377,0.03999 -0.22604,0.05738 -0.33503,0.04633 -0.41544,-0.04214 -0.71845,-0.413567 -0.67631,-0.829004 0.0381,-0.375689 0.33638,-0.557879 0.41942,-0.597387 1.01175,-0.498441 1.76542,-1.402615 2.07551,-2.492983 0.30891,-1.078827 0.13877,-2.248997 -0.46558,-3.200242 -1.36983,-2.190871 -2.97857,-4.197415 -4.78064,-5.970966 -0.64567,-0.645835 -1.49533,-1.042918 -2.39672,-1.13435 -0.17952,-0.01821 -0.36777,-0.02694 -0.55026,-0.01566 -1.10497,0.03818 -2.13595,0.534674 -2.86103,1.361432 -0.058,0.07442 -0.27973,0.292887 -0.64644,0.25569 -0.4257,-0.04318 -0.7195,-0.40331 -0.67723,-0.820029 0.0111,-0.108989 0.0403,-0.205767 0.0994,-0.290451 0.58754,-0.952115 0.76538,-2.105122 0.46207,-3.176099 -0.30084,-1.082386 -1.0417,-1.977526 -2.031241,-2.489838 -2.245001,-1.148755 -4.607179,-2.04902 -7.015407,-2.674147 -0.204722,-0.05056 -0.401386,-0.09123 -0.609099,-0.112304 -0.89242,-0.09052 -1.794505,0.118509 -2.555795,0.612561 -0.930969,0.596018 -1.579438,1.561384 -1.771438,2.662434 -0.06773,0.373979 -0.415892,0.639198 -0.801839,0.600049 -0.396203,-0.04019 -0.682734,-0.369787 -0.672037,-0.768983 0.02312,-1.109113 -0.410358,-2.173862 -1.211769,-2.957262 -0.647619,-0.626602 -1.479091,-1.0114768 -2.371511,-1.1019992 -0.207719,-0.02107 -0.407261,-0.020581 -0.619253,-0.012293 -2.475724,0.1297242 -4.91952,0.5321321 -7.258375,1.1770621 -1.082386,0.300851 -1.987653,1.03938 -2.489467,2.040348 -0.51207,0.999928 -0.570534,2.163749 -0.177177,3.21536 0.03986,0.105086 0.05959,0.217196 0.04762,0.335159 -0.0411,0.405179 -0.412657,0.709477 -0.819119,0.668248 -0.366713,-0.0372 -0.532047,-0.28455 -0.589991,-0.390173 -0.520665,-0.984211 -1.440541,-1.698018 -2.523512,-1.978862 -0.194468,-0.04952 -0.392413,-0.09032 -0.589874,-0.110351 -0.901395,-0.09143 -1.805796,0.127726 -2.574652,0.619716 -2.155395,1.403216 -4.155342,3.06185 -5.944223,4.912886 -0.794086,0.830122 -1.201198,1.970236 -1.097806,3.121976 0.104303,1.142764 0.698484,2.19402 1.631366,2.868988 0.06754,0.03664 0.249663,0.195023 0.292091,0.479134 l -36.508453,-3.703229 0.334647,-3.29913 C 23.779842,16.205821 21.38361,13.278679 18.103709,12.945983 L 3.7352322,11.488519 c -3.27990043,-0.332697 -6.2149773,2.052369 -6.5487139,5.342527 l -7.3095603,72.061645 106.356997,10.788304 2.658708,-26.210994 0.01025,0.001 c 0.21498,0.0516 0.431,0.09295 0.638724,0.11402 0.882155,0.08948 1.773845,-0.119308 2.533065,-0.592844 2.14123,-1.365791 4.14636,-2.973378 5.93121,-4.784666 0.76887,-0.773091 1.18715,-1.831757 1.1569,-2.925558 -0.0388,-1.085603 -0.5147,-2.115788 -1.33272,-2.850354 -0.0735,-0.06705 -0.24355,-0.255286 -0.21039,-0.582251 0.0421,-0.415437 0.41358,-0.718452 0.82003,-0.677223 0.11925,0.0121 0.20565,0.04158 0.22293,0.06277 0.51085,0.301832 1.06293,0.478305 1.63865,0.536702 0.5052,0.05125 1.01027,0.0014 1.50509,-0.138797 1.06188,-0.302933 1.94699,-1.034439 2.44532,-2.013738 1.13887,-2.236936 2.03705,-4.578601 2.64919,-6.960939 0.27943,-1.081818 0.0946,-2.222388 -0.5013,-3.15464 -0.60307,-0.938162 -1.57075,-1.576503 -2.6627,-1.768875 z M 41.643262,77.954915 22.85887,80.455197 10.062162,64.77946 16.265967,46.84817 35.059706,44.357903 47.863439,60.053785 41.643262,77.954915 z M 110.70321,57.809594 c -0.54725,-0.326251 -1.18841,-0.53119 -1.86028,-0.599341 -2.59649,-0.263374 -4.92109,1.633068 -5.18551,4.239806 -0.15685,1.546349 0.44587,2.998751 1.51953,3.958738 -1.58475,1.601004 -3.3398,3.016329 -5.233546,4.215504 -0.157946,-0.307489 -0.349905,-0.586042 -0.574457,-0.849764 -0.756855,-0.916194 -1.866132,-1.550761 -3.1445,-1.680432 -2.605457,-0.264284 -4.93238,1.642285 -5.195754,4.238766 -0.07335,0.723167 0.02645,1.425037 0.250078,2.068221 -1.892628,0.498472 -3.856692,0.82 -5.860861,0.936673 0.0477,-2.437 -1.790308,-4.54582 -4.258569,-4.796188 -2.486211,-0.252188 -4.722455,1.462792 -5.139993,3.893368 -2.010199,-0.513506 -3.941126,-1.221054 -5.763308,-2.106702 0.37094,-0.591941 0.621612,-1.288055 0.697047,-2.031737 0.263243,-2.5952 -1.632028,-4.931342 -4.238767,-5.195756 -1.683545,-0.17077 -3.242071,0.571447 -4.207687,1.81554 -1.633857,-1.567358 -3.08947,-3.308357 -4.32828,-5.194471 1.293294,-0.719897 2.22966,-2.045977 2.391586,-3.642332 0.264284,-2.605456 -1.623052,-4.93043 -4.228507,-5.194714 -0.732144,-0.07427 -1.434015,0.02553 -2.089536,0.268643 -0.586521,-2.110121 -0.955049,-4.300466 -1.077262,-6.556505 2.526998,0.156576 4.739863,-1.71104 4.997253,-4.248539 0.256351,-2.527241 -1.536418,-4.80117 -4.044296,-5.146235 0.512706,-1.989552 1.224158,-3.869563 2.096556,-5.663294 0.62803,0.423826 1.360529,0.698915 2.161912,0.780203 2.606739,0.264414 4.932623,-1.631898 5.197037,-4.238637 0.006,-0.05899 0.0121,-0.119245 0.0067,-0.180681 0.108922,-1.66132 -0.657058,-3.189871 -1.926608,-4.108846 1.578526,-1.641791 3.338629,-3.09417 5.245519,-4.333463 0.714824,1.3433 2.068686,2.31228 3.703506,2.478107 2.596482,0.263374 4.920174,-1.624093 5.184458,-4.229549 0.07635,-0.752659 -0.02944,-1.48493 -0.283046,-2.151881 2.060728,-0.572099 4.219501,-0.923103 6.412953,-1.041302 -0.05876,2.456605 1.769238,4.574773 4.255449,4.826961 2.478516,0.251408 4.703596,-1.455636 5.129067,-3.875044 2.182979,0.572484 4.255992,1.373465 6.215613,2.372799 -0.369785,0.593354 -0.609396,1.269863 -0.683791,2.003289 -0.264284,2.605456 1.63306,4.921083 4.239806,5.185498 1.58609,0.160885 3.08228,-0.477547 4.05772,-1.601466 1.60102,1.584755 3.01311,3.358904 4.21125,5.262915 -1.4128,0.697412 -2.45377,2.084129 -2.62467,3.768957 -0.26441,2.606739 1.6423,4.932384 4.23877,5.195757 0.74369,0.07543 1.4748,-0.03176 2.13033,-0.274871 0.48742,1.912236 0.79765,3.885516 0.90315,5.897619 -2.45661,-0.05876 -4.57477,1.769238 -4.82605,4.246472 -0.25219,2.486212 1.45344,4.71244 3.87413,5.138044 -0.55808,2.155944 -1.35776,4.216133 -2.34411,6.14987 z"
     id="path3"
     inkscape:connector-curvature="0" /><polygon
     points="28.929,70.796 21.602,63.469 30.621,61.336 37.94,68.654 "
     id="polygon5"
     transform="matrix(1.2822128,0.13006104,-0.13006104,1.2822128,-3.3535724,-18.327931)" /><polygon
     points="29.817,58.345 20.636,60.523 22.815,51.351 31.997,49.171 "
     id="polygon7"
     transform="matrix(1.2822128,0.13006104,-0.13006104,1.2822128,-3.3535724,-18.327931)" /><polygon
     points="40.127,66.468 32.8,59.148 34.941,50.138 42.26,57.456 "
     id="polygon9"
     transform="matrix(1.2822128,0.13006104,-0.13006104,1.2822128,-3.3535724,-18.327931)" /><g
     id="g11"
     transform="matrix(1.2822128,0.13006104,-0.13006104,1.2822128,-3.3535724,-18.327931)"><path
       d="m 71.99,32.03 c -5.093,0 -9.235,4.142 -9.235,9.234 0,5.092 4.142,9.236 9.235,9.236 5.093,0 9.235,-4.143 9.235,-9.235 0,-5.092 -4.142,-9.235 -9.235,-9.235 z m 0,13.061 c -2.109,0 -3.825,-1.716 -3.825,-3.826 0,-2.109 1.716,-3.825 3.825,-3.825 2.11,0 3.826,1.715 3.826,3.825 0,2.11 -1.715,3.826 -3.826,3.826 z"
       id="path13"
       inkscape:connector-curvature="0" /></g></svg>