<?xml version="1.0" encoding="UTF-8" standalone="no"?>
<svg
   xmlns:dc="http://purl.org/dc/elements/1.1/"
   xmlns:cc="http://creativecommons.org/ns#"
   xmlns:rdf="http://www.w3.org/1999/02/22-rdf-syntax-ns#"
   xmlns:svg="http://www.w3.org/2000/svg"
   xmlns="http://www.w3.org/2000/svg"
   xmlns:sodipodi="http://sodipodi.sourceforge.net/DTD/sodipodi-0.dtd"
   xmlns:inkscape="http://www.inkscape.org/namespaces/inkscape"
   version="1.1"
   x="0px"
   y="0px"
   viewBox="0 0 54 54"
   enable-background="new 0 0 54 54"
   xml:space="preserve"
   id="svg46"
   inkscape:version="0.91 r13725"
   sodipodi:docname="illu_icon.svg"
   width="54"
   height="54"><metadata
     id="metadata66"><rdf:RDF><cc:Work
         rdf:about=""><dc:format>image/svg+xml</dc:format><dc:type
           rdf:resource="http://purl.org/dc/dcmitype/StillImage" /><dc:title></dc:title></cc:Work></rdf:RDF></metadata><defs
     id="defs64" /><sodipodi:namedview
     pagecolor="#ffffff"
     bordercolor="#666666"
     borderopacity="1"
     objecttolerance="10"
     gridtolerance="10"
     guidetolerance="10"
     inkscape:pageopacity="0"
     inkscape:pageshadow="2"
     inkscape:window-width="640"
     inkscape:window-height="480"
     id="namedview62"
     showgrid="false"
     inkscape:zoom="3.4962963"
     inkscape:cx="27"
     inkscape:cy="20.25"
     inkscape:window-x="580"
     inkscape:window-y="341"
     inkscape:window-maximized="0"
     inkscape:current-layer="svg46"
     fit-margin-top="0"
     fit-margin-left="0"
     fit-margin-right="0"
     fit-margin-bottom="0" /><g
     id="g48"><path
       d="M 41.82,0 12.18,0 C 5.46,0 0,5.46 0,12.18 L 0,41.83 C 0,48.54 5.46,54 12.18,54 l 29.65,0 C 48.54,54 54,48.54 54,41.82 L 54,12.18 C 54,5.46 48.54,0 41.82,0 Z M 52,41.82 C 52,47.44 47.44,52 41.82,52 L 12.18,52 C 6.56,52 2,47.44 2,41.82 L 2,12.18 C 2,6.56 6.56,2 12.18,2 L 41.83,2 C 47.44,2 52,6.56 52,12.18 l 0,29.64 z"
       id="path50"
       inkscape:connector-curvature="0" /><path
       d="m 19.84,12 -8.24,28 3.12,0 2.64,-9.04 8.32,0 2.76,9.04 3.24,0 -8.52,-28 -3.32,0 z M 18.12,28 21.48,16.64 24.96,28 18.12,28 Z"
       id="path52"
       inkscape:connector-curvature="0" /><path
       d="m 36.86,11.6 c -0.44,0 -0.83,0.17 -1.16,0.5 -0.33,0.33 -0.5,0.71 -0.5,1.14 0,0.43 0.17,0.81 0.5,1.14 0.33,0.33 0.72,0.5 1.16,0.5 0.44,0 0.82,-0.16 1.14,-0.48 0.32,-0.32 0.48,-0.71 0.48,-1.16 0,-0.45 -0.16,-0.84 -0.48,-1.16 -0.32,-0.32 -0.7,-0.48 -1.14,-0.48 z"
       id="path54"
       inkscape:connector-curvature="0" /><rect
       x="35.360001"
       y="19.959999"
       width="2.8800001"
       height="20.040001"
       id="rect56" /></g></svg>
