<?xml version="1.0" encoding="UTF-8" standalone="no"?>
<svg
   xmlns:dc="http://purl.org/dc/elements/1.1/"
   xmlns:cc="http://creativecommons.org/ns#"
   xmlns:rdf="http://www.w3.org/1999/02/22-rdf-syntax-ns#"
   xmlns:svg="http://www.w3.org/2000/svg"
   xmlns="http://www.w3.org/2000/svg"
   xmlns:sodipodi="http://sodipodi.sourceforge.net/DTD/sodipodi-0.dtd"
   xmlns:inkscape="http://www.inkscape.org/namespaces/inkscape"
   version="1.1"
   x="0px"
   y="0px"
   viewBox="0 0 54 54"
   enable-background="new 0 0 54 54"
   xml:space="preserve"
   id="svg2"
   inkscape:version="0.91 r13725"
   sodipodi:docname="ps_icon.svg"
   width="54"
   height="54"><metadata
     id="metadata20"><rdf:RDF><cc:Work
         rdf:about=""><dc:format>image/svg+xml</dc:format><dc:type
           rdf:resource="http://purl.org/dc/dcmitype/StillImage" /><dc:title></dc:title></cc:Work></rdf:RDF></metadata><defs
     id="defs18" /><sodipodi:namedview
     pagecolor="#ffffff"
     bordercolor="#666666"
     borderopacity="1"
     objecttolerance="10"
     gridtolerance="10"
     guidetolerance="10"
     inkscape:pageopacity="0"
     inkscape:pageshadow="2"
     inkscape:window-width="640"
     inkscape:window-height="480"
     id="namedview16"
     showgrid="false"
     inkscape:zoom="3.4962963"
     inkscape:cx="27"
     inkscape:cy="20.25"
     inkscape:window-x="783"
     inkscape:window-y="339"
     inkscape:window-maximized="0"
     inkscape:current-layer="svg2"
     fit-margin-top="0"
     fit-margin-left="0"
     fit-margin-right="0"
     fit-margin-bottom="0" /><g
     id="g4"><path
       d="M 41.82,0 12.18,0 C 5.46,0 0,5.46 0,12.18 L 0,41.83 C 0,48.54 5.46,54 12.18,54 l 29.65,0 C 48.54,54 54,48.54 54,41.82 L 54,12.18 C 54,5.46 48.54,0 41.82,0 Z M 52,41.82 C 52,47.44 47.44,52 41.82,52 L 12.18,52 C 6.56,52 2,47.44 2,41.82 L 2,12.18 C 2,6.56 6.56,2 12.18,2 L 41.83,2 C 47.44,2 52,6.56 52,12.18 l 0,29.64 z"
       id="path6"
       inkscape:connector-curvature="0" /><path
       d="m 19.92,12 -9.64,0 0,28 2.88,0 0,-9.2 7.04,0 c 1.36,0 2.53,-0.25 3.52,-0.74 0.99,-0.49 1.72,-1.07 2.2,-1.72 0.48,-0.65 0.86,-1.49 1.14,-2.52 0.28,-1.03 0.45,-1.88 0.5,-2.56 0.05,-0.68 0.08,-1.49 0.08,-2.42 0,-2.64 -0.63,-4.77 -1.9,-6.4 C 24.47,12.81 22.53,12 19.92,12 Z m 4.82,10.6 c -0.01,0.4 -0.11,1 -0.28,1.8 -0.17,0.8 -0.41,1.41 -0.72,1.84 -0.31,0.43 -0.79,0.83 -1.46,1.2 C 21.61,27.81 20.8,28 19.84,28 l -6.68,0 0,-13.2 6.52,0 c 3.39,0 5.08,2.03 5.08,6.08 0,0.75 -0.01,1.32 -0.02,1.72 z"
       id="path8"
       inkscape:connector-curvature="0" /><path
       d="M 41.22,29.44 C 40.17,29.01 39.11,28.63 38.04,28.28 36.97,27.93 36.01,27.51 35.16,27 c -0.85,-0.51 -1.28,-1.2 -1.28,-2.08 0,-0.8 0.34,-1.46 1.02,-1.98 0.68,-0.52 1.71,-0.78 3.1,-0.78 1.39,0 2.51,0.33 3.36,1 l 0.92,-2.52 -0.48,-0.28 c -0.32,-0.19 -0.85,-0.38 -1.6,-0.58 -0.75,-0.2 -1.55,-0.3 -2.4,-0.3 -2.43,0 -4.18,0.58 -5.26,1.74 -1.08,1.16 -1.62,2.41 -1.62,3.76 0,1.35 0.49,2.49 1.48,3.42 0.8,0.8 1.73,1.39 2.78,1.76 1.05,0.37 2.1,0.73 3.14,1.06 1.04,0.33 1.92,0.79 2.64,1.36 0.72,0.57 1.08,1.35 1.08,2.32 0,0.97 -0.42,1.72 -1.26,2.24 -0.84,0.52 -1.83,0.78 -2.98,0.78 -1.15,0 -2.16,-0.27 -3.04,-0.82 -0.88,-0.55 -1.37,-1.31 -1.48,-2.3 l -2.8,0.12 c 0.05,1.6 0.73,2.95 2.04,4.04 1.31,1.09 3.11,1.64 5.42,1.64 2.31,0 4.06,-0.55 5.26,-1.66 1.2,-1.11 1.8,-2.41 1.8,-3.9 0,-1.49 -0.37,-2.69 -1.1,-3.6 -0.73,-0.91 -1.63,-1.57 -2.68,-2 z"
       id="path10"
       inkscape:connector-curvature="0" /></g></svg>
